<?xml version="1.0" encoding="UTF-8" standalone="no"?>
<!-- Created with Inkscape (http://www.inkscape.org/) -->

<svg
   xmlns:dc="http://purl.org/dc/elements/1.1/"
   xmlns:cc="http://creativecommons.org/ns#"
   xmlns:rdf="http://www.w3.org/1999/02/22-rdf-syntax-ns#"
   xmlns:svg="http://www.w3.org/2000/svg"
   xmlns="http://www.w3.org/2000/svg"
   xmlns:xlink="http://www.w3.org/1999/xlink"
   xmlns:sodipodi="http://sodipodi.sourceforge.net/DTD/sodipodi-0.dtd"
   xmlns:inkscape="http://www.inkscape.org/namespaces/inkscape"
   width="300"
   height="300"
   viewBox="0 0 79.374998 79.375002"
   version="1.1"
   id="svg939"
   inkscape:version="0.92.4 (unknown)"
   sodipodi:docname="github.svg">
  <defs
     id="defs933">
    <linearGradient
       inkscape:collect="always"
       id="linearGradient2615">
      <stop
         style="stop-color:#000000;stop-opacity:1"
         offset="0"
         id="stop2611" />
      <stop
         style="stop-color:#333333;stop-opacity:1"
         offset="1"
         id="stop2613" />
    </linearGradient>
    <linearGradient
       inkscape:collect="always"
       id="linearGradient2607">
      <stop
         style="stop-color:#b22222;stop-opacity:1"
         offset="0"
         id="stop2603" />
      <stop
         style="stop-color:#de8787;stop-opacity:1"
         offset="1"
         id="stop2605" />
    </linearGradient>
    <filter
       inkscape:collect="always"
       style="color-interpolation-filters:sRGB"
       id="filter1024"
       x="-0.072168291"
       width="1.1443366"
       y="-0.11953541"
       height="1.2390708">
      <feGaussianBlur
         inkscape:collect="always"
         stdDeviation="3.2538576"
         id="feGaussianBlur1026" />
    </filter>
    <radialGradient
       inkscape:collect="always"
       xlink:href="#linearGradient1681"
       id="radialGradient1683"
       cx="396.8504"
       cy="540.45007"
       fx="396.8504"
       fy="540.45007"
       r="60.522465"
       gradientTransform="matrix(-0.23249985,-0.40101492,0.36728646,-0.2201168,-74.423331,538.49065)"
       gradientUnits="userSpaceOnUse" />
    <linearGradient
       inkscape:collect="always"
       id="linearGradient1681">
      <stop
         style="stop-color:#333333;stop-opacity:1"
         offset="0"
         id="stop1677" />
      <stop
         style="stop-color:#000000;stop-opacity:1"
         offset="1"
         id="stop1679" />
    </linearGradient>
    <filter
       inkscape:collect="always"
       style="color-interpolation-filters:sRGB"
       id="filter1660"
       x="-0.20124"
       width="1.40248"
       y="-0.12577499"
       height="1.25155">
      <feGaussianBlur
         inkscape:collect="always"
         stdDeviation="0.33615825"
         id="feGaussianBlur1662" />
    </filter>
    <linearGradient
       inkscape:collect="always"
       xlink:href="#linearGradient2607"
       id="linearGradient2609"
       x1="51.003181"
       y1="275.88144"
       x2="49.993057"
       y2="218.49661"
       gradientUnits="userSpaceOnUse"
       gradientTransform="matrix(0.96846323,0,0,0.96846323,1.1695903,11.155407)" />
    <linearGradient
       inkscape:collect="always"
       xlink:href="#linearGradient2615"
       id="linearGradient2617"
       x1="39.234196"
       y1="288.91562"
       x2="39.234222"
       y2="269.6803"
       gradientUnits="userSpaceOnUse"
       gradientTransform="matrix(0.96846323,0,0,0.96846323,1.1695903,11.155407)" />
    <filter
       inkscape:collect="always"
       style="color-interpolation-filters:sRGB"
       id="filter3277"
       x="-0.045986055"
       width="1.0919721"
       y="-0.050198424"
       height="1.1003968">
      <feGaussianBlur
         inkscape:collect="always"
         stdDeviation="1.4721385"
         id="feGaussianBlur3279" />
    </filter>
  </defs>
  <sodipodi:namedview
     id="base"
     pagecolor="#ffffff"
     bordercolor="#666666"
     borderopacity="1.0"
     inkscape:pageopacity="0.0"
     inkscape:pageshadow="2"
     inkscape:zoom="1.0159041"
     inkscape:cx="377.53805"
     inkscape:cy="237.28938"
     inkscape:document-units="px"
     inkscape:current-layer="layer1"
     showgrid="false"
     units="px"
     inkscape:window-width="1299"
     inkscape:window-height="713"
     inkscape:window-x="67"
     inkscape:window-y="27"
     inkscape:window-maximized="1" />
  <metadata
     id="metadata936">
    <rdf:RDF>
      <cc:Work
         rdf:about="">
        <dc:format>image/svg+xml</dc:format>
        <dc:type
           rdf:resource="http://purl.org/dc/dcmitype/StillImage" />
        <dc:title></dc:title>
      </cc:Work>
    </rdf:RDF>
  </metadata>
  <g
     inkscape:label="Layer 1"
     inkscape:groupmode="layer"
     id="layer1"
     transform="translate(0,-217.62499)">
    <g
       id="g2707"
       style="fill:#000000;filter:url(#filter3277)"
       transform="matrix(0.96846323,0,0,0.96846323,1.1695903,11.155407)">
      <g
         id="g2627"
         style="fill:#000000">
        <path
           inkscape:connector-curvature="0"
           id="path2623"
           d="m 39.650481,227.85587 2.518502,-2.56597 19.862019,9.40369 15.090297,10.52203 -16.355408,17.32436 -9.361802,8.76646 -13.916201,-13.40752 z"
           style="fill:#000000;stroke:none;stroke-width:0.25285089px;stroke-linecap:butt;stroke-linejoin:miter;stroke-opacity:1" />
        <path
           style="fill:#000000;fill-opacity:1;stroke-width:0.22289605"
           inkscape:connector-curvature="0"
           d="M 77.121516,245.21562 52.44171,220.06748 c -1.420434,-1.44836 -3.725637,-1.44836 -5.147842,0 l -5.124885,5.22242 6.501156,6.62487 c 1.510749,-0.5202 3.243185,-0.17122 4.447452,1.05596 1.210013,1.23507 1.550055,3.01555 1.027188,4.56 l 6.265336,6.38479 c 1.515832,-0.53214 3.264826,-0.18787 4.475502,1.04787 1.692021,1.72355 1.692021,4.51701 0,6.24169 -1.692476,1.7249 -4.433763,1.7249 -6.127119,0 -1.272722,-1.29829 -1.587147,-3.20298 -0.942838,-4.80075 l -5.842941,-5.95413 -6.81e-4,15.66881 a 4.3763535,4.4596388 0 0 1 1.145534,0.83478 c 1.692031,1.72354 1.692031,4.51723 0,6.24327 -1.692466,1.724 -4.435088,1.724 -6.12513,0 -1.692022,-1.72604 -1.692022,-4.5195 0,-6.24305 a 4.3396999,4.4222877 0 0 1 1.417793,-0.96326 v -15.81484 a 4.2787577,4.3601857 0 0 1 -1.417765,-0.96326 c -1.282,-1.30458 -1.590243,-3.22142 -0.933343,-4.82549 l -6.408646,-6.53129 -16.922485,17.24342 c -1.421987,1.44972 -1.421987,3.79902 0,5.24761 l 24.680242,25.14858 c 1.420879,1.4486 3.725647,1.4486 5.148296,0 l 24.564765,-25.0318 c 1.421542,-1.44904 1.421542,-3.7997 0,-5.24806"
           id="path2625" />
      </g>
      <g
         id="g2675"
         transform="translate(0.52916667,-0.52916667)"
         style="fill:#000000">
        <g
           transform="matrix(1.1119692,-0.64573577,0.63782266,1.1350415,-175.94231,164.99502)"
           id="g2633"
           style="fill:#000000">
          <path
             style="fill:#000000;stroke:#000000;stroke-width:0.34252819;stroke-linecap:round;stroke-linejoin:miter;stroke-miterlimit:4;stroke-dasharray:none;stroke-opacity:1"
             d="m 80.140399,143.99819 c 0,0 3.092243,-2.68902 12.344465,-4.51971"
             id="path2629"
             inkscape:connector-curvature="0" />
          <path
             inkscape:connector-curvature="0"
             id="path2631"
             d="m 82.222544,146.65974 c 0,0 1.885428,-3.13587 9.822536,-6.14378"
             style="fill:#000000;stroke:#000000;stroke-width:0.34252819;stroke-linecap:round;stroke-linejoin:miter;stroke-miterlimit:4;stroke-dasharray:none;stroke-opacity:1" />
        </g>
        <path
           style="fill:#000000;stroke:none;stroke-width:0.08073951px;stroke-linecap:butt;stroke-linejoin:miter;stroke-opacity:1"
           d="m 33.000488,223.27476 c 4.866568,4.96269 6.345874,9.69836 4.224137,14.19284 l -5.171121,-0.3866 -5.171115,-0.38659 c -1.486692,-4.76424 0.623856,-9.23153 6.118099,-13.41965 z"
           id="path2635"
           inkscape:connector-curvature="0" />
        <rect
           transform="matrix(0.8647632,-0.50217985,0.48988884,0.87178491,0,0)"
           ry="15.629072"
           y="214.1338"
           x="-119.81139"
           height="31.258144"
           width="41.181583"
           id="rect2637"
           style="opacity:1;fill:#000000;fill-opacity:1;stroke:none;stroke-width:0.40185097;stroke-miterlimit:4;stroke-dasharray:none" />
        <path
           inkscape:connector-curvature="0"
           id="path2639"
           d="m 0.82778623,241.95789 c 1.73332657,6.78221 4.99476537,10.48296 9.88089877,10.90788 l 2.298956,-4.72458 2.298963,-4.72457 c -3.281907,-3.72173 -8.1393089,-4.14264 -14.47881777,-1.45873 z"
           style="fill:#000000;stroke:none;stroke-width:0.08073951px;stroke-linecap:butt;stroke-linejoin:miter;stroke-opacity:1" />
        <path
           inkscape:connector-curvature="0"
           id="path2641"
           transform="matrix(0.29420851,-0.17085092,0.16875724,0.30031306,-175.94231,164.99502)"
           d="m 370,485.37695 -25,16.42774 5.46484,29.37109 3.52149,2.04492 c -0.51042,-2.12229 -0.78711,-4.33778 -0.78711,-6.62109 0,-12.37894 7.43241,-25.06568 19.03711,-26.55859 0.82836,-0.10659 1.66597,-0.15058 2.51172,-0.14454 5.92021,0.042 12.25453,2.50545 18.84179,2.68164 9.73777,0.24152 19.26892,-3.34675 27.87305,-2.5371 11.64922,1.09621 19.03711,14.17931 19.03711,26.55859 0,1.11955 -0.0728,2.22015 -0.19922,3.30469 l 4.87891,-4.35547 0.79101,-8.69922 -11.38281,-24.79492 -1.01562,-0.96289 z"
           style="opacity:1;fill:#000000;fill-opacity:1;stroke:none;stroke-width:1.17382562;stroke-miterlimit:4;stroke-dasharray:none;filter:url(#filter1024)" />
        <g
           transform="matrix(-1.1119692,0.64573577,0.63782266,1.1350415,57.571221,29.390507)"
           id="g2647"
           style="fill:#000000">
          <path
             inkscape:connector-curvature="0"
             id="path2643"
             d="m 80.140399,143.99819 c 0,0 3.092243,-2.68902 12.344465,-4.51971"
             style="fill:#000000;stroke:#000000;stroke-width:0.34252819;stroke-linecap:round;stroke-linejoin:miter;stroke-miterlimit:4;stroke-dasharray:none;stroke-opacity:1" />
          <path
             style="fill:#000000;stroke:#000000;stroke-width:0.34252819;stroke-linecap:round;stroke-linejoin:miter;stroke-miterlimit:4;stroke-dasharray:none;stroke-opacity:1"
             d="m 82.222544,146.65974 c 0,0 1.885428,-3.13587 9.822536,-6.14378"
             id="path2645"
             inkscape:connector-curvature="0" />
        </g>
        <path
           inkscape:connector-curvature="0"
           id="path2649"
           d="m 0.82777044,241.9579 c 1.23972326,4.85082 3.26154306,8.12426 6.10001736,9.75132 -0.1757762,2.94968 0.4640703,5.98918 2.0217705,8.76119 4.2417167,7.54835 13.6097707,10.1685 21.0046897,5.87417 l 8.915895,-5.17758 c 7.394919,-4.29433 9.933569,-13.82887 5.691864,-21.37723 -1.5577,-2.77201 -3.808153,-4.8762 -6.396975,-6.22044 0.06303,-3.31201 -1.683825,-6.74513 -5.164528,-10.29458 -3.891045,2.96604 -6.083018,6.07216 -6.504006,9.32456 -1.002338,0.32792 -1.987357,0.76433 -2.939427,1.31721 l -8.915895,5.17758 c -0.952071,0.55288 -1.822201,1.19378 -2.609163,1.90494 -2.9697263,-1.28314 -6.7147655,-0.94182 -11.20424256,0.95886 z m 17.17010656,7.93526 c 1.748864,-0.99886 4.028198,-1.34128 5.995961,-2.41381 2.905693,-1.59117 5.104292,-4.29718 7.772334,-5.52406 3.612293,-1.66107 7.993741,1.00573 10.082834,4.72339 2.620706,4.66369 1.052347,10.55409 -3.516555,13.20731 l -9.190568,5.33709 c -4.568894,2.65322 -10.356804,1.03471 -12.977509,-3.62898 -2.089036,-3.71756 -2.043337,-8.79739 1.118925,-11.2284 0.225723,-0.17354 0.464732,-0.32986 0.714578,-0.47254 z"
           style="opacity:1;fill:#000000;fill-opacity:1;stroke:none;stroke-width:0.40183085;stroke-miterlimit:4;stroke-dasharray:none" />
        <path
           transform="matrix(0.97421991,-0.22560047,0.22084763,0.97530832,0,0)"
           d="m -23.315914,257.49942 a 3.6345544,3.7013474 0 0 1 -2.555615,3.21164 3.6345544,3.7013474 0 0 1 -3.88362,-1.20254"
           sodipodi:open="true"
           sodipodi:end="2.4584443"
           sodipodi:start="0.088552247"
           sodipodi:ry="3.7013474"
           sodipodi:rx="3.6345544"
           sodipodi:cy="257.17209"
           sodipodi:cx="-26.936228"
           sodipodi:type="arc"
           id="path2651"
           style="opacity:1;fill:#000000;fill-opacity:1;stroke:#c83737;stroke-width:1.02698362;stroke-linecap:round;stroke-miterlimit:4;stroke-dasharray:none" />
        <ellipse
           transform="matrix(0.8647632,-0.50217985,0.48988884,0.87178491,0,0)"
           ry="1.0007921"
           rx="1.0935597"
           cy="237.6459"
           cx="-99.220657"
           id="ellipse2653"
           style="opacity:1;fill:#000000;fill-opacity:1;stroke:none;stroke-width:0.47401339;stroke-linecap:round;stroke-miterlimit:4;stroke-dasharray:none" />
        <ellipse
           transform="matrix(1.1119692,-0.64573577,0.63782266,1.1350415,-175.94231,164.99502)"
           style="opacity:1;fill:#000000;fill-opacity:1;stroke:none;stroke-width:0.79374999;stroke-linecap:round;stroke-miterlimit:4;stroke-dasharray:none;filter:url(#filter1660)"
           id="ellipse2655"
           cx="98.889732"
           cy="136.63828"
           rx="2.0045214"
           ry="3.2072346" />
        <ellipse
           transform="matrix(0.8647632,-0.50217985,0.48988884,0.87178491,0,0)"
           ry="4.1757364"
           rx="2.5775449"
           cy="232.2319"
           cx="-107.07764"
           id="ellipse2657"
           style="opacity:1;fill:#000000;fill-opacity:1;stroke:none;stroke-width:1.02702904;stroke-linecap:round;stroke-miterlimit:4;stroke-dasharray:none" />
        <ellipse
           transform="matrix(0.8647632,-0.50217985,0.48988884,0.87178491,0,0)"
           style="opacity:1;fill:#000000;fill-opacity:1;stroke:none;stroke-width:0.6478101;stroke-linecap:round;stroke-miterlimit:4;stroke-dasharray:none"
           id="ellipse2659"
           cx="-107.07764"
           cy="232.05791"
           rx="1.448697"
           ry="2.9559145" />
        <ellipse
           ry="0.41676784"
           rx="0.41161135"
           transform="matrix(0.8647632,-0.50217985,0.48988884,0.87178491,0,0)"
           cy="230.22804"
           cx="-107.61816"
           id="ellipse2661"
           style="opacity:1;fill:#000000;fill-opacity:1;stroke:none;stroke-width:0.44891939;stroke-linecap:round;stroke-miterlimit:4;stroke-dasharray:none" />
        <ellipse
           transform="matrix(1.1119692,-0.64573577,0.63782266,1.1350415,-175.94231,164.99502)"
           ry="3.2072346"
           rx="2.0045214"
           cy="136.63828"
           cx="111.11027"
           id="ellipse2663"
           style="opacity:1;fill:#000000;fill-opacity:1;stroke:none;stroke-width:0.79374999;stroke-linecap:round;stroke-miterlimit:4;stroke-dasharray:none;filter:url(#filter1660)" />
        <ellipse
           transform="matrix(-0.8647632,0.50217985,0.48988884,0.87178491,0,0)"
           style="opacity:1;fill:#000000;fill-opacity:1;stroke:none;stroke-width:1.02702904;stroke-linecap:round;stroke-miterlimit:4;stroke-dasharray:none"
           id="ellipse2665"
           cx="91.36367"
           cy="232.2319"
           rx="2.5775449"
           ry="4.1757364" />
        <ellipse
           transform="matrix(-0.8647632,0.50217985,0.48988884,0.87178491,0,0)"
           ry="2.9559145"
           rx="1.448697"
           cy="232.05791"
           cx="91.36367"
           id="ellipse2667"
           style="opacity:1;fill:#000000;fill-opacity:1;stroke:none;stroke-width:0.6478101;stroke-linecap:round;stroke-miterlimit:4;stroke-dasharray:none" />
        <ellipse
           ry="0.41676784"
           rx="0.41161135"
           transform="matrix(0.8647632,-0.50217985,0.48988884,0.87178491,0,0)"
           style="opacity:1;fill:#000000;fill-opacity:1;stroke:none;stroke-width:0.44891939;stroke-linecap:round;stroke-miterlimit:4;stroke-dasharray:none"
           id="ellipse2669"
           cx="-91.904182"
           cy="230.22804" />
        <path
           style="opacity:1;fill:#000000;fill-opacity:1;stroke:#c83737;stroke-width:1.02698362;stroke-linecap:round;stroke-miterlimit:4;stroke-dasharray:none"
           id="path2671"
           sodipodi:type="arc"
           sodipodi:cx="-26.936228"
           sodipodi:cy="257.17209"
           sodipodi:rx="3.6345544"
           sodipodi:ry="3.7013474"
           sodipodi:start="0.088552247"
           sodipodi:end="2.4584443"
           sodipodi:open="true"
           d="m -23.315914,257.49942 a 3.6345544,3.7013474 0 0 1 -2.555615,3.21164 3.6345544,3.7013474 0 0 1 -3.88362,-1.20254"
           transform="matrix(0.97421991,-0.22560047,0.22084763,0.97530832,0,0)" />
        <ellipse
           transform="matrix(0.8647632,-0.50217985,0.48988884,0.87178491,0,0)"
           style="opacity:1;fill:#000000;fill-opacity:1;stroke:none;stroke-width:0.47401339;stroke-linecap:round;stroke-miterlimit:4;stroke-dasharray:none"
           id="ellipse2673"
           cx="-99.220657"
           cy="237.6459"
           rx="1.0935597"
           ry="1.0007921" />
      </g>
      <path
         style="fill:#000000;fill-opacity:1;stroke:#ffffff;stroke-width:1.05833328;stroke-miterlimit:4;stroke-dasharray:none;paint-order:stroke markers fill"
         d="m 7.8975176,289.11077 c -0.600444,-0.12667 -1.470976,-0.41129 -1.934514,-0.63251 -0.9633374,-0.45978 -2.2665603,-1.61412 -2.8516408,-2.52587 -1.5634623,-2.43646 -1.9984228,-7.59942 -0.9461385,-11.23064 1.0972173,-3.78627 3.4281033,-5.60658 7.4567533,-5.82343 2.3284114,-0.12533 5.2702834,0.35796 5.8779444,0.96562 0.224761,0.22476 0.220536,0.27949 -0.138237,1.79116 -0.203543,0.85763 -0.430038,1.59638 -0.503314,1.64166 -0.07327,0.0452 -0.51266,-0.0163 -0.976414,-0.13674 -1.185855,-0.30813 -2.950845,-0.42048 -4.0088044,-0.25519 -2.804301,0.43814 -3.987838,2.32737 -3.982147,6.3565 0.0045,3.13987 0.756139,4.96116 2.375906,5.75658 0.664153,0.32614 0.839525,0.35471 2.1776284,0.35471 0.800418,0 1.556489,-0.0416 1.68016,-0.0923 0.203455,-0.0835 0.221522,-0.27017 0.189823,-1.9615 l -0.03504,-1.86925 -1.075659,-0.0317 c -1.7911714,-0.0528 -1.6451254,0.11328 -1.6451254,-1.87205 v -1.70911 l 0.324607,-0.12342 c 0.1785354,-0.0679 1.5984944,-0.12342 3.1554654,-0.12342 1.556972,0 2.976931,0.0556 3.155464,0.12342 l 0.324603,0.12342 v 4.99644 4.99644 l -0.547942,0.32112 c -1.901633,1.11444 -5.380395,1.52811 -8.0733834,0.96004 z m 21.5741564,0.12433 c -0.820822,-0.17462 -1.746329,-0.70301 -2.238462,-1.27795 -0.820155,-0.95816 -0.882836,-1.29551 -0.962263,-5.17877 l -0.07118,-3.48007 -1.012384,-0.0633 -1.012384,-0.0633 v -1.39202 -1.39203 l 1.012384,-0.2539 1.012384,-0.25391 0.06327,-1.89741 0.06327,-1.89742 1.99313,-0.0349 1.993133,-0.0349 0.0019,1.67997 c 0.0013,0.92399 0.05578,1.7654 0.121537,1.8698 0.08977,0.14246 0.460193,0.20561 1.485004,0.25309 l 1.365396,0.0633 v 1.64512 1.64512 l -1.358219,0.036 c -1.227615,0.0324 -1.371799,0.0613 -1.499486,0.29986 -0.222105,0.41502 -0.102319,5.40086 0.138632,5.77023 0.287733,0.44107 0.898121,0.66434 1.816277,0.66434 1.022052,0 1.093309,0.0966 1.090896,1.47861 -0.0025,1.35609 -0.06459,1.52779 -0.613608,1.69313 -0.614352,0.18499 -2.733397,0.26083 -3.389275,0.12129 z m 24.473231,-0.0137 c -1.246566,-0.2938 -2.156951,-1.02172 -2.677005,-2.14047 -0.255354,-0.54932 -0.264718,-0.75754 -0.264718,-5.8845 v -5.315 l 1.951909,-0.035 c 1.476759,-0.0265 1.976883,0.003 2.054467,0.12655 0.0564,0.0889 0.10343,2.11385 0.104496,4.49993 0.0019,4.8103 0.03461,5.04162 0.749647,5.3378 0.52325,0.21673 1.816385,0.11191 2.47927,-0.20104 l 0.506186,-0.23895 0.06327,-4.74461 0.06327,-4.74464 1.951924,-0.035 c 1.476757,-0.0265 1.976877,0.003 2.054466,0.12653 0.134472,0.21191 0.133728,12.64072 -0.0013,12.85271 -0.07597,0.11973 -0.451916,0.15323 -1.420245,0.12654 -1.202592,-0.0332 -1.320865,-0.0582 -1.362328,-0.2894 -0.07996,-0.44574 -0.211782,-0.45523 -1.049305,-0.0756 -0.451617,0.20478 -1.16773,0.46213 -1.591357,0.57191 -0.834188,0.21615 -2.815218,0.25027 -3.613184,0.0622 z m 16.926307,0.008 c -0.61261,-0.12263 -1.727823,-0.5542 -2.154436,-0.83373 -0.381587,-0.25002 -0.659582,-0.16157 -0.714709,0.22741 -0.04059,0.28625 -0.07246,0.29248 -1.496754,0.29248 h -1.455305 v -9.61766 -9.61766 l 1.881079,-0.0351 c 1.279427,-0.0239 1.937153,0.0115 2.056403,0.11042 0.140634,0.1167 0.175331,0.756 0.175331,3.23044 0,1.92803 0.04645,3.08493 0.123881,3.08493 0.06814,0 0.563411,-0.14754 1.100604,-0.32787 1.204168,-0.40423 2.898374,-0.4519 3.900706,-0.10973 2.250482,0.7682 3.226976,2.7321 3.226976,6.49002 0,5.03296 -1.581127,7.26871 -5.106885,7.22129 -0.566887,-0.008 -1.258483,-0.0594 -1.536891,-0.11521 z m 1.451508,-3.44962 c 0.780835,-0.3951 1.048742,-1.30844 1.04665,-3.56832 -0.0017,-1.63662 -0.176341,-2.26664 -0.802856,-2.89316 l -0.494954,-0.49496 -1.053966,0.0553 c -0.746128,0.0392 -1.180142,0.129 -1.486007,0.30756 l -0.432044,0.25224 -0.03404,2.88771 c -0.02395,2.03221 0.0089,2.93958 0.111161,3.0627 0.380202,0.4581 2.494167,0.72077 3.146067,0.3909 z m -53.635592,3.02967 c -0.106855,-0.12877 -0.137094,-1.88123 -0.113051,-6.55206 l 0.03284,-6.37628 h 2.024767 2.024768 v 6.51722 6.51723 l -1.91171,0.0348 c -1.509436,0.0275 -1.942401,-0.002 -2.057586,-0.14095 z m 16.512291,-0.0276 c -0.04294,-0.11179 -0.07801,-4.40573 -0.07801,-9.54202 0,-7.80356 0.02884,-9.36262 0.175325,-9.48421 0.119257,-0.099 0.776984,-0.13428 2.05641,-0.11042 l 1.88108,0.0351 0.06327,3.54336 0.06327,3.54334 2.752416,0.0341 c 1.513831,0.0187 2.764391,0.0187 2.779016,0 0.0146,-0.0187 0.05736,-1.6286 0.09491,-3.57744 l 0.06831,-3.54335 1.897317,-0.0352 c 1.673255,-0.031 1.916108,-0.009 2.056404,0.18238 0.207278,0.28346 0.234372,18.52118 0.02809,18.90662 -0.120533,0.22522 -0.28192,0.24478 -2.020314,0.24478 -1.821848,0 -1.894679,-0.0103 -2.03957,-0.28077 -0.111092,-0.20754 -0.131186,-1.2388 -0.0771,-3.95544 0.04574,-2.29616 0.0268,-3.75748 -0.05031,-3.89533 -0.111093,-0.19852 -0.381256,-0.22063 -2.695918,-0.22063 -1.990946,0 -2.60414,0.0381 -2.712661,0.16895 -0.09437,0.11374 -0.151148,1.46863 -0.17368,4.14445 l -0.03348,3.97549 -1.978381,0.0348 c -1.720784,0.0301 -1.988553,0.008 -2.056411,-0.16853 z M 19.745816,274.50633 c -0.475497,-0.22096 -1.017916,-0.79306 -1.19415,-1.2595 -0.346146,-0.91615 -0.0052,-2.20971 0.716736,-2.71596 0.523794,-0.36752 1.247029,-0.56555 1.7117,-0.46869 2.08154,0.43389 2.694684,2.92286 1.032375,4.19076 -0.545464,0.41604 -1.650709,0.53961 -2.266661,0.25339 z"
         id="path2677"
         inkscape:connector-curvature="0" />
    </g>
    <path
       style="fill:#ffffff;stroke:none;stroke-width:0.24487679px;stroke-linecap:butt;stroke-linejoin:miter;stroke-opacity:1"
       d="m 39.569623,231.82544 2.439077,-2.48505 19.235635,9.10713 14.614398,10.1902 -15.839612,16.778 -9.066561,8.49 -13.477329,-12.98469 z"
       id="path2470"
       inkscape:connector-curvature="0" />
    <path
       id="path2459"
       d="M 75.858943,248.63772 51.957458,224.28267 c -1.375638,-1.40268 -3.608142,-1.40268 -4.985496,0 l -4.963262,5.05772 6.29613,6.41594 c 1.463105,-0.50379 3.140906,-0.16582 4.307194,1.02266 1.171853,1.19612 1.501171,2.92045 0.994794,4.4162 l 6.067747,6.18343 c 1.468028,-0.51536 3.161864,-0.18195 4.33436,1.01482 1.63866,1.6692 1.63866,4.37456 0,6.04485 -1.639101,1.6705 -4.293937,1.6705 -5.93389,0 -1.232584,-1.25735 -1.537093,-3.10197 -0.913104,-4.64935 l -5.658673,-5.76636 -6.6e-4,15.17467 a 4.2383374,4.3189962 0 0 1 1.109408,0.80845 c 1.638669,1.66919 1.638669,4.37478 0,6.04638 -1.639091,1.66963 -4.29522,1.66963 -5.931964,0 -1.638661,-1.6716 -1.638661,-4.37697 0,-6.04616 a 4.2028398,4.282823 0 0 1 1.373081,-0.93288 v -15.3161 a 4.1438195,4.2226795 0 0 1 -1.373053,-0.93288 c -1.24157,-1.26344 -1.540092,-3.11982 -0.903909,-4.67331 l -6.206538,-6.32531 -16.388804,16.69962 c -1.377142,1.404 -1.377142,3.67921 0,5.08211 l 23.901907,24.35548 c 1.376069,1.40292 3.608152,1.40292 4.985935,0 l 23.790072,-24.24238 c 1.376711,-1.40334 1.376711,-3.67987 0,-5.08255"
       inkscape:connector-curvature="0"
       style="fill:url(#linearGradient2609);fill-opacity:1;stroke-width:0.21586664" />
    <g
       id="g2183"
       transform="matrix(1.0769013,-0.62537135,0.61770779,1.099246,-168.71159,170.43454)">
      <path
         inkscape:connector-curvature="0"
         id="path2177"
         d="m 80.140399,143.99819 c 0,0 3.092243,-2.68902 12.344465,-4.51971"
         style="fill:none;stroke:#000000;stroke-width:0.34252819;stroke-linecap:round;stroke-linejoin:miter;stroke-miterlimit:4;stroke-dasharray:none;stroke-opacity:1" />
      <path
         style="fill:none;stroke:#000000;stroke-width:0.34252819;stroke-linecap:round;stroke-linejoin:miter;stroke-miterlimit:4;stroke-dasharray:none;stroke-opacity:1"
         d="m 82.222544,146.65974 c 0,0 1.885428,-3.13587 9.822536,-6.14378"
         id="path2179"
         inkscape:connector-curvature="0" />
    </g>
    <path
       inkscape:connector-curvature="0"
       id="path1039"
       d="m 33.641828,226.87632 c 4.713092,4.80619 6.145746,9.39251 4.090921,13.74525 l -5.00804,-0.37441 -5.008035,-0.3744 c -1.439806,-4.61399 0.604182,-8.9404 5.925154,-12.99644 z"
       style="fill:#1a1a1a;stroke:none;stroke-width:0.07819325px;stroke-linecap:butt;stroke-linejoin:miter;stroke-opacity:1" />
    <rect
       style="opacity:1;fill:#ffb380;fill-opacity:1;stroke:none;stroke-width:0.38917789;stroke-miterlimit:4;stroke-dasharray:none"
       id="rect828"
       width="39.882851"
       height="30.272364"
       x="-119.78075"
       y="217.43004"
       ry="15.136182"
       transform="matrix(0.8647632,-0.50217985,0.48988884,0.87178491,0,0)" />
    <path
       style="fill:#1a1a1a;stroke:none;stroke-width:0.07819325px;stroke-linecap:butt;stroke-linejoin:miter;stroke-opacity:1"
       d="m 2.4837493,244.97025 c 1.6786631,6.56832 4.8372466,10.15236 9.5692867,10.56388 l 2.226455,-4.57558 2.226461,-4.57557 c -3.178406,-3.60436 -7.8826214,-4.012 -14.0222027,-1.41273 z"
       id="path834"
       inkscape:connector-curvature="0" />
    <path
       style="opacity:1;fill:#ff7f2a;fill-opacity:1;stroke:none;stroke-width:1.17382562;stroke-miterlimit:4;stroke-dasharray:none;filter:url(#filter1024)"
       d="m 370,485.37695 -25,16.42774 5.46484,29.37109 3.52149,2.04492 c -0.51042,-2.12229 -0.78711,-4.33778 -0.78711,-6.62109 0,-12.37894 7.43241,-25.06568 19.03711,-26.55859 0.82836,-0.10659 1.66597,-0.15058 2.51172,-0.14454 5.92021,0.042 12.25453,2.50545 18.84179,2.68164 9.73777,0.24152 19.26892,-3.34675 27.87305,-2.5371 11.64922,1.09621 19.03711,14.17931 19.03711,26.55859 0,1.11955 -0.0728,2.22015 -0.19922,3.30469 l 4.87891,-4.35547 0.79101,-8.69922 -11.38281,-24.79492 -1.01562,-0.96289 z"
       transform="matrix(0.28493012,-0.16546283,0.16343518,0.29084216,-168.71159,170.43454)"
       id="path864"
       inkscape:connector-curvature="0" />
    <g
       id="g2197"
       transform="matrix(-1.0769013,0.62537135,0.61770779,1.099246,57.437679,39.106554)">
      <path
         style="fill:none;stroke:#000000;stroke-width:0.34252819;stroke-linecap:round;stroke-linejoin:miter;stroke-miterlimit:4;stroke-dasharray:none;stroke-opacity:1"
         d="m 80.140399,143.99819 c 0,0 3.092243,-2.68902 12.344465,-4.51971"
         id="path2193"
         inkscape:connector-curvature="0" />
      <path
         inkscape:connector-curvature="0"
         id="path2195"
         d="m 82.222544,146.65974 c 0,0 1.885428,-3.13587 9.822536,-6.14378"
         style="fill:none;stroke:#000000;stroke-width:0.34252819;stroke-linecap:round;stroke-linejoin:miter;stroke-miterlimit:4;stroke-dasharray:none;stroke-opacity:1" />
    </g>
    <path
       style="opacity:1;fill:url(#radialGradient1683);fill-opacity:1;stroke:none;stroke-width:0.3891584;stroke-miterlimit:4;stroke-dasharray:none"
       d="m 2.483734,244.97026 c 1.2006264,4.69784 3.1586846,7.86805 5.9076425,9.44379 -0.1702327,2.85666 0.4494351,5.8003 1.9580105,8.48489 4.107947,7.3103 13.180562,9.84782 20.34227,5.68892 l 8.634716,-5.01429 c 7.161707,-4.15891 9.620296,-13.39276 5.512361,-20.70307 -1.508575,-2.68459 -3.688056,-4.72242 -6.195235,-6.02426 0.06104,-3.20756 -1.630723,-6.53241 -5.001656,-9.96993 -3.768334,2.87251 -5.891179,5.88067 -6.29889,9.0305 -0.970728,0.31758 -1.924682,0.74022 -2.846727,1.27567 l -8.634717,5.01429 c -0.922045,0.53545 -1.764734,1.15614 -2.526878,1.84487 -2.876071,-1.24268 -6.5030035,-0.91212 -10.850897,0.92862 z m 16.628617,7.68501 c 1.69371,-0.96736 3.901162,-1.29898 5.806868,-2.33769 2.814056,-1.54099 4.943319,-4.16166 7.527219,-5.34985 3.498373,-1.60868 7.741645,0.97401 9.764854,4.57443 2.538058,4.51661 1.01916,10.22125 -3.405654,12.79079 l -8.900727,5.16878 c -4.424806,2.56955 -10.030184,1.00208 -12.56824,-3.51453 -2.023155,-3.60032 -1.978897,-8.51995 1.083637,-10.8743 0.218605,-0.16806 0.450076,-0.31945 0.692043,-0.45763 z"
       id="rect859"
       inkscape:connector-curvature="0" />
    <path
       style="opacity:1;fill:none;fill-opacity:1;stroke:#c83737;stroke-width:0.99459589;stroke-linecap:round;stroke-miterlimit:4;stroke-dasharray:none"
       id="path1064"
       sodipodi:type="arc"
       sodipodi:cx="-26.796684"
       sodipodi:cy="259.80988"
       sodipodi:rx="3.5199323"
       sodipodi:ry="3.5846188"
       sodipodi:start="0.088552247"
       sodipodi:end="2.4584443"
       sodipodi:open="true"
       d="m -23.290544,260.12689 a 3.5199323,3.5846188 0 0 1 -2.475019,3.11035 3.5199323,3.5846188 0 0 1 -3.761143,-1.16462"
       transform="matrix(0.97421991,-0.22560047,0.22084763,0.97530832,0,0)" />
    <ellipse
       style="opacity:1;fill:#c83737;fill-opacity:1;stroke:none;stroke-width:0.45906454;stroke-linecap:round;stroke-miterlimit:4;stroke-dasharray:none"
       id="path1066"
       cx="-99.839386"
       cy="240.20064"
       rx="1.0590724"
       ry="0.96923041"
       transform="matrix(0.8647632,-0.50217985,0.48988884,0.87178491,0,0)" />
    <ellipse
       ry="3.2072346"
       rx="2.0045214"
       cy="136.63828"
       cx="98.889732"
       id="ellipse1094"
       style="opacity:1;fill:#ff7f2a;fill-opacity:1;stroke:none;stroke-width:0.79374999;stroke-linecap:round;stroke-miterlimit:4;stroke-dasharray:none;filter:url(#filter1660)"
       transform="matrix(1.0769013,-0.62537135,0.61770779,1.099246,-168.71159,170.43454)" />
    <ellipse
       style="opacity:1;fill:#ffffff;fill-opacity:1;stroke:none;stroke-width:0.99463987;stroke-linecap:round;stroke-miterlimit:4;stroke-dasharray:none"
       id="path1068"
       cx="-107.44858"
       cy="234.95738"
       rx="2.4962575"
       ry="4.0440474"
       transform="matrix(0.8647632,-0.50217985,0.48988884,0.87178491,0,0)" />
    <ellipse
       ry="2.8626945"
       rx="1.4030098"
       cy="234.78888"
       cx="-107.44858"
       id="ellipse1070"
       style="opacity:1;fill:#d35f5f;fill-opacity:1;stroke:none;stroke-width:0.62738025;stroke-linecap:round;stroke-miterlimit:4;stroke-dasharray:none"
       transform="matrix(0.8647632,-0.50217985,0.48988884,0.87178491,0,0)" />
    <ellipse
       style="opacity:1;fill:#ffffff;fill-opacity:1;stroke:none;stroke-width:0.43476191;stroke-linecap:round;stroke-miterlimit:4;stroke-dasharray:none"
       id="path1072"
       cx="-107.97205"
       cy="233.01671"
       transform="matrix(0.8647632,-0.50217985,0.48988884,0.87178491,0,0)"
       rx="0.39863044"
       ry="0.40362433" />
    <ellipse
       style="opacity:1;fill:#ff7f2a;fill-opacity:1;stroke:none;stroke-width:0.79374999;stroke-linecap:round;stroke-miterlimit:4;stroke-dasharray:none;filter:url(#filter1660)"
       id="ellipse1664"
       cx="111.11027"
       cy="136.63828"
       rx="2.0045214"
       ry="3.2072346"
       transform="matrix(1.0769013,-0.62537135,0.61770779,1.099246,-168.71159,170.43454)" />
    <ellipse
       ry="4.0440474"
       rx="2.4962575"
       cy="234.95738"
       cx="92.230179"
       id="ellipse1084"
       style="opacity:1;fill:#ffffff;fill-opacity:1;stroke:none;stroke-width:0.99463987;stroke-linecap:round;stroke-miterlimit:4;stroke-dasharray:none"
       transform="matrix(-0.8647632,0.50217985,0.48988884,0.87178491,0,0)" />
    <ellipse
       style="opacity:1;fill:#d35f5f;fill-opacity:1;stroke:none;stroke-width:0.62738025;stroke-linecap:round;stroke-miterlimit:4;stroke-dasharray:none"
       id="ellipse1086"
       cx="92.230179"
       cy="234.78888"
       rx="1.4030098"
       ry="2.8626945"
       transform="matrix(-0.8647632,0.50217985,0.48988884,0.87178491,0,0)" />
    <ellipse
       cy="233.01671"
       cx="-92.753647"
       id="circle1092"
       style="opacity:1;fill:#ffffff;fill-opacity:1;stroke:none;stroke-width:0.43476191;stroke-linecap:round;stroke-miterlimit:4;stroke-dasharray:none"
       transform="matrix(0.8647632,-0.50217985,0.48988884,0.87178491,0,0)"
       rx="0.39863044"
       ry="0.40362433" />
    <path
       transform="matrix(0.97421991,-0.22560047,0.22084763,0.97530832,0,0)"
       d="m -23.290544,260.12689 a 3.5199323,3.5846188 0 0 1 -2.475019,3.11035 3.5199323,3.5846188 0 0 1 -3.761143,-1.16462"
       sodipodi:open="true"
       sodipodi:end="2.4584443"
       sodipodi:start="0.088552247"
       sodipodi:ry="3.5846188"
       sodipodi:rx="3.5199323"
       sodipodi:cy="259.80988"
       sodipodi:cx="-26.796684"
       sodipodi:type="arc"
       id="path1666"
       style="opacity:1;fill:none;fill-opacity:1;stroke:#d35f5f;stroke-width:0.99459589;stroke-linecap:round;stroke-miterlimit:4;stroke-dasharray:none" />
    <ellipse
       ry="0.96923041"
       rx="1.0590724"
       cy="240.20064"
       cx="-99.839386"
       id="ellipse1668"
       style="opacity:1;fill:#d35f5f;fill-opacity:1;stroke:none;stroke-width:0.45906454;stroke-linecap:round;stroke-miterlimit:4;stroke-dasharray:none"
       transform="matrix(0.8647632,-0.50217985,0.48988884,0.87178491,0,0)" />
    <path
       style="fill:url(#linearGradient2617);fill-opacity:1;stroke:#ffffff;stroke-width:1.02495682;stroke-miterlimit:4;stroke-dasharray:none;paint-order:stroke markers fill"
       d="M 8.8180457,291.14856 C 8.2365378,291.02589 7.3934596,290.75024 6.94454,290.536 6.0115832,290.09072 4.7494597,288.97278 4.1828308,288.08979 2.668675,285.73016 2.2474318,280.73003 3.2665304,277.21332 c 1.0626146,-3.66686 3.319992,-5.42976 7.2215916,-5.63977 2.254981,-0.12138 5.104076,0.34667 5.692573,0.93516 0.217673,0.21768 0.213581,0.27068 -0.133877,1.73468 -0.197124,0.83058 -0.416476,1.54603 -0.487441,1.58988 -0.07096,0.0438 -0.496493,-0.0158 -0.945622,-0.13242 -1.148457,-0.29842 -2.857784,-0.40722 -3.882379,-0.24715 -2.7158628,0.42433 -3.8620749,2.25398 -3.8565634,6.15604 0.00436,3.04085 0.7322928,4.8047 2.3009776,5.57504 0.6432078,0.31585 0.8130496,0.34352 2.1089528,0.34352 0.775176,0 1.507403,-0.0403 1.627174,-0.0894 0.197038,-0.0809 0.214536,-0.26165 0.183836,-1.89964 l -0.03393,-1.8103 -1.041736,-0.0307 c -1.734684,-0.0511 -1.593243,0.10971 -1.593243,-1.81301 v -1.65521 l 0.31437,-0.11953 c 0.172905,-0.0658 1.548083,-0.11953 3.055952,-0.11953 1.50787,0 2.883048,0.0539 3.055951,0.11953 l 0.314366,0.11953 v 4.83887 4.83887 l -0.530662,0.31099 c -1.841662,1.07929 -5.210715,1.47992 -7.8187751,0.92976 z m 20.8937773,0.12041 c -0.794936,-0.16911 -1.691255,-0.68084 -2.167868,-1.23765 -0.79429,-0.92794 -0.854994,-1.25465 -0.931916,-5.01545 l -0.06894,-3.37032 -0.980456,-0.0613 -0.980457,-0.0613 v -1.34812 -1.34813 l 0.980457,-0.2459 0.980456,-0.2459 0.06128,-1.83757 0.06127,-1.83758 1.930273,-0.0338 1.930276,-0.0338 0.0018,1.62699 c 0.0013,0.89485 0.05402,1.70972 0.117704,1.81083 0.08694,0.13797 0.44568,0.19913 1.438172,0.24511 l 1.322336,0.0613 v 1.59324 1.59324 l -1.315385,0.0349 c -1.1889,0.0314 -1.328537,0.0594 -1.452197,0.2904 -0.215101,0.40193 -0.09909,5.23053 0.13426,5.58825 0.278658,0.42716 0.869797,0.64339 1.758997,0.64339 0.98982,0 1.05883,0.0936 1.056493,1.43198 -0.0024,1.31333 -0.06255,1.47961 -0.594257,1.63974 -0.594977,0.17915 -2.647195,0.2526 -3.282388,0.11746 z m 23.701425,-0.0133 c -1.207254,-0.28453 -2.088928,-0.9895 -2.592581,-2.07296 -0.247301,-0.532 -0.25637,-0.73365 -0.25637,-5.69893 v -5.14738 l 1.890352,-0.0339 c 1.430187,-0.0257 1.914539,0.003 1.989676,0.12256 0.05462,0.0861 0.100168,2.04718 0.1012,4.35801 0.0018,4.6586 0.03352,4.88263 0.726006,5.16946 0.506748,0.2099 1.759102,0.10839 2.401082,-0.19469 l 0.490222,-0.23142 0.06127,-4.59498 0.06128,-4.59501 1.890366,-0.0339 c 1.430185,-0.0257 1.914533,0.003 1.989675,0.12254 0.130231,0.20523 0.129511,12.24208 -0.0013,12.44738 -0.07357,0.11596 -0.437664,0.1484 -1.375455,0.12255 -1.164666,-0.0322 -1.279209,-0.0564 -1.319365,-0.28027 -0.07744,-0.43169 -0.205103,-0.44088 -1.016213,-0.0732 -0.437374,0.19832 -1.130903,0.44756 -1.541171,0.55388 -0.80788,0.20933 -2.726435,0.24237 -3.499235,0.0602 z m 16.392506,0.008 c -0.593291,-0.11876 -1.673333,-0.53672 -2.086492,-0.80744 -0.369553,-0.24213 -0.638781,-0.15647 -0.69217,0.22024 -0.03931,0.27722 -0.07018,0.28326 -1.449551,0.28326 h -1.409409 v -9.31435 -9.31435 l 1.821755,-0.034 c 1.239078,-0.0231 1.876062,0.0111 1.991551,0.10694 0.136199,0.11302 0.169802,0.73216 0.169802,3.12856 0,1.86723 0.04499,2.98765 0.119974,2.98765 0.06599,0 0.545643,-0.14289 1.065894,-0.31753 1.166193,-0.39149 2.806969,-0.43765 3.777691,-0.10627 2.179509,0.74397 3.125207,2.64593 3.125207,6.28534 0,4.87424 -1.531263,7.03948 -4.94583,6.99356 -0.549009,-0.008 -1.218795,-0.0575 -1.488422,-0.11158 z m 1.405732,-3.34083 c 0.75621,-0.38264 1.015668,-1.26718 1.013642,-3.45579 -0.0016,-1.585 -0.17078,-2.19515 -0.777537,-2.80192 l -0.479345,-0.47935 -1.020727,0.0536 c -0.722597,0.038 -1.142924,0.12493 -1.439143,0.29786 l -0.418419,0.24429 -0.03297,2.79664 c -0.0232,1.96812 0.0086,2.84687 0.107655,2.96611 0.368212,0.44365 2.415509,0.69804 3.04685,0.37857 z m -51.944099,2.93412 c -0.103485,-0.1247 -0.132771,-1.8219 -0.109486,-6.34542 l 0.0318,-6.1752 h 1.960913 1.960913 v 6.31169 6.3117 l -1.851421,0.0337 c -1.461833,0.0266 -1.881144,-0.002 -1.992696,-0.1365 z m 15.991547,-0.0267 c -0.04159,-0.10826 -0.07555,-4.26678 -0.07555,-9.24109 0,-7.55746 0.02793,-9.06735 0.169796,-9.18511 0.115496,-0.0959 0.75248,-0.13004 1.991557,-0.10694 l 1.821757,0.034 0.06128,3.43161 0.06127,3.43159 2.665614,0.033 c 1.46609,0.0181 2.677211,0.0181 2.691375,0 0.01414,-0.0181 0.05555,-1.57724 0.09192,-3.46462 l 0.06616,-3.4316 1.837482,-0.0341 c 1.620486,-0.03 1.85568,-0.009 1.991552,0.17662 0.200741,0.27452 0.22698,17.93709 0.0272,18.31037 -0.116732,0.21812 -0.273029,0.23706 -1.9566,0.23706 -1.764393,0 -1.834927,-0.01 -1.975248,-0.27191 -0.107589,-0.201 -0.127049,-1.19974 -0.07467,-3.8307 0.0443,-2.22375 0.02596,-3.63898 -0.04872,-3.77249 -0.10759,-0.19226 -0.369233,-0.21367 -2.610898,-0.21367 -1.928158,0 -2.522014,0.0369 -2.627112,0.16362 -0.09139,0.11016 -0.146382,1.42232 -0.168203,4.01375 l -0.03242,3.85012 -1.915989,0.0337 c -1.666516,0.0292 -1.925841,0.008 -1.991559,-0.16322 z M 20.292687,277.0047 c -0.460501,-0.21399 -0.985814,-0.76805 -1.15649,-1.21978 -0.33523,-0.88726 -0.005,-2.14002 0.694132,-2.63031 0.507276,-0.35593 1.207702,-0.54771 1.657719,-0.45391 2.015895,0.42021 2.609702,2.83069 0.999817,4.0586 -0.528262,0.40292 -1.598651,0.52259 -2.195178,0.2454 z"
       id="path2591"
       inkscape:connector-curvature="0" />
  </g>
</svg>
